<?xml version="1.0" standalone="no"?><!DOCTYPE svg PUBLIC "-//W3C//DTD SVG 1.1//EN" "http://www.w3.org/Graphics/SVG/1.1/DTD/svg11.dtd"><svg t="1628765062665" class="icon" viewBox="0 0 1102 1024" version="1.1" xmlns="http://www.w3.org/2000/svg" p-id="3544" xmlns:xlink="http://www.w3.org/1999/xlink" width="215.234375" height="200"><defs><style type="text/css"></style></defs><path d="M945.230769 1024V630.153846a78.769231 78.769231 0 0 1 157.538462 0v393.846154h-157.538462zM708.923077 157.538462a78.769231 78.769231 0 0 1 157.538461 0v866.461538H708.923077V157.538462zM472.615385 393.846154a78.769231 78.769231 0 0 1 157.538461 0v630.153846H472.615385V393.846154zM236.307692 236.307692a78.769231 78.769231 0 0 1 157.538462 0v787.692308H236.307692V236.307692zM0 78.769231a78.769231 78.769231 0 0 1 157.538462 0v945.230769H0V78.769231z" p-id="3545"></path></svg>